<?xml version="1.0" standalone="no"?>
<!DOCTYPE svg PUBLIC "-//W3C//DTD SVG 20010904//EN"
 "http://www.w3.org/TR/2001/REC-SVG-20010904/DTD/svg10.dtd">
<svg version="1.0" xmlns="http://www.w3.org/2000/svg"
 width="978.000000pt" height="395.000000pt" viewBox="0 0 978.000000 395.000000"
 preserveAspectRatio="xMidYMid meet">

<g transform="translate(0.000000,395.000000) scale(0.100000,-0.100000)"
fill="#000000" stroke="none">
<path d="M2459 3813 c-345 -716 -559 -1465 -659 -2308 -11 -99 -23 -196 -27
-215 l-5 -35 -25 55 c-92 207 -489 1236 -649 1682 l-39 108 -452 0 c-249 0
-453 -2 -453 -5 0 -3 -13 -142 -30 -308 -77 -786 -108 -1342 -117 -2160 l-6
-557 375 0 376 0 5 658 c4 589 18 1046 33 1141 5 30 26 -16 163 -360 171 -426
293 -715 488 -1156 l125 -283 507 0 508 0 6 287 c33 1447 293 2496 860 3471
l65 112 -493 0 -494 0 -62 -127z"/>
<path d="M8617 3193 c-4 -3 -7 -116 -7 -250 l0 -243 -195 0 -195 0 2 -332 3
-333 174 -3 174 -2 -7 -213 c-15 -520 -17 -899 -7 -1054 29 -428 157 -617 467
-695 78 -19 114 -22 294 -22 151 0 226 5 284 17 43 9 82 19 85 23 8 8 38 704
30 704 -4 0 -24 -6 -45 -14 -66 -23 -181 -38 -234 -31 -59 8 -107 38 -133 82
-31 55 -37 183 -30 706 l6 497 239 0 238 0 0 335 0 335 -240 0 -240 0 0 250 0
250 -328 0 c-181 0 -332 -3 -335 -7z"/>
<path d="M3967 2755 c-548 -75 -936 -448 -1049 -1007 -20 -97 -23 -144 -23
-333 0 -170 4 -240 18 -308 116 -573 498 -922 1108 -1011 142 -21 442 -21 591
0 176 24 342 68 475 125 l43 18 0 371 0 371 -42 -26 c-140 -86 -301 -147 -473
-181 -135 -27 -402 -24 -510 5 -129 34 -220 84 -301 165 -67 67 -128 166 -136
221 -3 20 3 20 829 23 781 2 832 3 837 20 26 91 36 446 16 590 -84 615 -520
977 -1170 971 -63 -1 -159 -7 -213 -14z m326 -630 c172 -36 285 -131 336 -283
39 -114 94 -102 -475 -102 l-495 0 7 23 c13 44 66 143 98 184 119 153 323 222
529 178z"/>
<path d="M6550 2710 c-243 -24 -466 -136 -647 -323 -182 -188 -288 -398 -345
-682 -30 -146 -32 -468 -4 -614 93 -496 388 -851 811 -977 118 -35 360 -45
469 -20 148 35 289 108 404 210 l67 60 3 -137 3 -137 359 0 360 0 0 1300 0
1300 -360 0 -360 0 0 -130 c0 -71 -4 -130 -8 -130 -5 0 -17 9 -28 21 -31 34
-135 114 -192 148 -153 90 -344 130 -532 111z m424 -720 c119 -37 225 -140
275 -268 57 -145 68 -429 21 -577 -78 -247 -230 -365 -468 -365 -224 0 -388
130 -446 356 -61 234 -29 533 72 690 108 166 326 232 546 164z"/>
</g>
</svg>
